<svg id="visual" viewBox="0 0 1440 800" width="1440" height="800" xmlns="http://www.w3.org/2000/svg" xmlns:xlink="http://www.w3.org/1999/xlink" version="1.1"><path d="M0 114L48 105C96 96 192 78 288 64C384 50 480 40 576 48.5C672 57 768 84 864 81.8C960 79.7 1056 48.3 1152 40.8C1248 33.3 1344 49.7 1392 57.8L1440 66L1440 0L1392 0C1344 0 1248 0 1152 0C1056 0 960 0 864 0C768 0 672 0 576 0C480 0 384 0 288 0C192 0 96 0 48 0L0 0Z" fill="#161617" stroke-linecap="round" stroke-linejoin="miter"></path></svg>